<svg xmlns="http://www.w3.org/2000/svg" xmlns:xlink="http://www.w3.org/1999/xlink" width="400" zoomAndPan="magnify" viewBox="0 0 300 149.999998" height="200" preserveAspectRatio="xMidYMid meet" version="1.0"><defs><g/><clipPath id="a5ac66b16b"><rect x="0" width="286" y="0" height="78"/></clipPath><clipPath id="21cd42eda1"><path d="M 0.640625 3 L 10 3 L 10 14 L 0.640625 14 Z M 0.640625 3 " clip-rule="nonzero"/></clipPath><clipPath id="59256d2a2f"><rect x="0" width="160" y="0" height="18"/></clipPath></defs><g transform="matrix(1, 0, 0, 1, 7, 31)"><g clip-path="url(#a5ac66b16b)"><g fill="#ffffff" fill-opacity="1"><g transform="translate(0.823243, 61.409366)"><g><path d="M 12.359375 0.765625 L 3.078125 -6.453125 L 3.078125 -49 L 10.75 -55.765625 L 25.578125 -55.765625 L 33.34375 -50.546875 L 33.03125 -35.5625 L 21.28125 -36.109375 L 20.515625 -44.25 L 15.359375 -43.703125 L 15.4375 -11.984375 L 21.4375 -12.515625 L 21.96875 -21.046875 L 35.03125 -20.4375 L 34.875 -9.0625 L 29.65625 0 Z M 12.359375 0.765625 "/></g></g></g><g fill="#ffffff" fill-opacity="1"><g transform="translate(37.383598, 61.409366)"><g><path d="M 3.078125 0.921875 L 4 -56.609375 L 17.359375 -56.453125 L 16.828125 -11.75 L 30.71875 -12.140625 L 31.109375 0.609375 Z M 3.078125 0.921875 "/></g></g></g><g fill="#ffffff" fill-opacity="1"><g transform="translate(71.562903, 61.409366)"><g><path d="M 3.078125 0.921875 L 3.6875 -55.375 L 16.671875 -55.078125 L 18.4375 0.921875 Z M 3.078125 0.921875 "/></g></g></g><g fill="#ffffff" fill-opacity="1"><g transform="translate(93.069015, 61.409366)"><g><path d="M 49.46875 1.15625 L 35.328125 0.84375 L 34.40625 -34.40625 L 25.890625 -23.578125 L 17.828125 -34.03125 L 16.046875 0.53125 L 3.078125 0.453125 L 3.765625 -55.15625 L 15.59375 -54.453125 L 27.34375 -42.09375 L 37.25 -53 L 48.078125 -53.84375 Z M 49.46875 1.15625 "/></g></g></g><g fill="#ffffff" fill-opacity="1"><g transform="translate(145.605337, 61.409366)"><g><path d="M 27.109375 -0.15625 L 3.078125 -0.765625 L 3.078125 -54.234375 L 23.28125 -54.453125 L 32.1875 -49.15625 L 33.109375 -32.875 L 28.734375 -28.5 L 34.1875 -25.125 L 35.1875 -7.6875 Z M 15.671875 -11.4375 L 21.734375 -11.4375 L 21.734375 -24.265625 L 15.671875 -23.578125 Z M 15.203125 -32.796875 L 20.890625 -33.71875 L 20.890625 -41.5625 L 15.4375 -42.015625 Z M 15.203125 -32.796875 "/></g></g></g><g fill="#ffffff" fill-opacity="1"><g transform="translate(182.31932, 61.409366)"><g><path d="M 3.078125 0.921875 L 3.6875 -55.375 L 16.671875 -55.078125 L 18.4375 0.921875 Z M 3.078125 0.921875 "/></g></g></g><g fill="#ffffff" fill-opacity="1"><g transform="translate(203.825431, 61.409366)"><g><path d="M 17.359375 0.921875 L 3.078125 -0.6875 L 4.296875 -55.3125 L 15.203125 -54.921875 L 25.34375 -29.65625 L 24.203125 -54.234375 L 37.484375 -55.609375 L 39.328125 -0.921875 L 24.578125 0.390625 L 16.75 -23.203125 Z M 17.359375 0.921875 "/></g></g></g><g fill="#ffffff" fill-opacity="1"><g transform="translate(246.223139, 61.409366)"><g><path d="M 27.109375 1.078125 L 11.4375 1 L 3.078125 -3.84375 L 4.140625 -50.625 L 10.671875 -56.609375 L 26.34375 -56.296875 L 34.265625 -51.921875 L 34.796875 -34.40625 L 23.203125 -34.03125 L 22.125 -45.3125 L 16.59375 -45.3125 L 15.828125 -12.0625 L 22.8125 -11.515625 L 23.5 -17.828125 L 20.125 -18.75 L 20.734375 -31.1875 L 35.875 -30.953125 L 35.484375 -3.609375 Z M 27.109375 1.078125 "/></g></g></g></g></g><g transform="matrix(1, 0, 0, 1, 74, 106)"><g clip-path="url(#59256d2a2f)"><g clip-path="url(#21cd42eda1)"><g fill="#ffffff" fill-opacity="1"><g transform="translate(0.652515, 13.219794)"><g><path d="M 4.3125 0.21875 C 3.53125 0.21875 2.765625 0.128906 2.015625 -0.046875 C 1.265625 -0.222656 0.648438 -0.460938 0.171875 -0.765625 L 1.203125 -3.09375 C 1.660156 -2.832031 2.171875 -2.625 2.734375 -2.46875 C 3.296875 -2.3125 3.832031 -2.234375 4.34375 -2.234375 C 4.789062 -2.234375 5.109375 -2.273438 5.296875 -2.359375 C 5.484375 -2.441406 5.578125 -2.570312 5.578125 -2.75 C 5.578125 -2.945312 5.453125 -3.09375 5.203125 -3.1875 C 4.953125 -3.289062 4.546875 -3.398438 3.984375 -3.515625 C 3.242188 -3.671875 2.628906 -3.835938 2.140625 -4.015625 C 1.648438 -4.191406 1.222656 -4.476562 0.859375 -4.875 C 0.503906 -5.28125 0.328125 -5.828125 0.328125 -6.515625 C 0.328125 -7.109375 0.492188 -7.648438 0.828125 -8.140625 C 1.160156 -8.628906 1.660156 -9.015625 2.328125 -9.296875 C 2.992188 -9.578125 3.800781 -9.71875 4.75 -9.71875 C 5.40625 -9.71875 6.046875 -9.644531 6.671875 -9.5 C 7.304688 -9.363281 7.863281 -9.160156 8.34375 -8.890625 L 7.375 -6.578125 C 6.4375 -7.046875 5.550781 -7.28125 4.71875 -7.28125 C 3.894531 -7.28125 3.484375 -7.082031 3.484375 -6.6875 C 3.484375 -6.488281 3.601562 -6.34375 3.84375 -6.25 C 4.09375 -6.15625 4.5 -6.054688 5.0625 -5.953125 C 5.789062 -5.816406 6.398438 -5.660156 6.890625 -5.484375 C 7.390625 -5.304688 7.820312 -5.015625 8.1875 -4.609375 C 8.5625 -4.210938 8.75 -3.671875 8.75 -2.984375 C 8.75 -2.390625 8.578125 -1.847656 8.234375 -1.359375 C 7.898438 -0.878906 7.398438 -0.492188 6.734375 -0.203125 C 6.078125 0.0742188 5.269531 0.21875 4.3125 0.21875 Z M 4.3125 0.21875 "/></g></g></g></g><g fill="#ffffff" fill-opacity="1"><g transform="translate(17.032597, 13.219794)"><g><path d="M 0.78125 -9.5 L 3.984375 -9.5 L 3.984375 0 L 0.78125 0 Z M 0.78125 -9.5 "/></g></g></g><g fill="#ffffff" fill-opacity="1"><g transform="translate(29.246399, 13.219794)"><g><path d="M 9.265625 0 L 9.234375 -4.328125 L 7.171875 -0.859375 L 5.75 -0.859375 L 3.6875 -4.1875 L 3.6875 0 L 0.78125 0 L 0.78125 -9.5 L 3.40625 -9.5 L 6.5 -4.4375 L 9.515625 -9.5 L 12.15625 -9.5 L 12.171875 0 Z M 9.265625 0 "/></g></g></g><g fill="#ffffff" fill-opacity="1"><g transform="translate(49.657058, 13.219794)"><g><path d="M 5.34375 -9.5 C 6.226562 -9.5 6.992188 -9.351562 7.640625 -9.0625 C 8.296875 -8.78125 8.800781 -8.363281 9.15625 -7.8125 C 9.507812 -7.269531 9.6875 -6.640625 9.6875 -5.921875 C 9.6875 -5.191406 9.507812 -4.554688 9.15625 -4.015625 C 8.800781 -3.472656 8.296875 -3.054688 7.640625 -2.765625 C 6.992188 -2.472656 6.226562 -2.328125 5.34375 -2.328125 L 3.984375 -2.328125 L 3.984375 0 L 0.78125 0 L 0.78125 -9.5 Z M 5.140625 -4.8125 C 5.578125 -4.8125 5.90625 -4.90625 6.125 -5.09375 C 6.34375 -5.289062 6.453125 -5.566406 6.453125 -5.921875 C 6.453125 -6.273438 6.34375 -6.546875 6.125 -6.734375 C 5.90625 -6.929688 5.578125 -7.03125 5.140625 -7.03125 L 3.984375 -7.03125 L 3.984375 -4.8125 Z M 5.140625 -4.8125 "/></g></g></g><g fill="#ffffff" fill-opacity="1"><g transform="translate(67.068546, 13.219794)"><g><path d="M 0.78125 -9.5 L 3.984375 -9.5 L 3.984375 -2.484375 L 8.265625 -2.484375 L 8.265625 0 L 0.78125 0 Z M 0.78125 -9.5 "/></g></g></g><g fill="#ffffff" fill-opacity="1"><g transform="translate(82.905798, 13.219794)"><g><path d="M 0.78125 -9.5 L 3.984375 -9.5 L 3.984375 0 L 0.78125 0 Z M 0.78125 -9.5 "/></g></g></g><g fill="#ffffff" fill-opacity="1"><g transform="translate(95.1196, 13.219794)"><g><path d="M 3.984375 -7.09375 L 3.984375 -5.453125 L 7.9375 -5.453125 L 7.9375 -3.046875 L 3.984375 -3.046875 L 3.984375 0 L 0.78125 0 L 0.78125 -9.5 L 8.5 -9.5 L 8.5 -7.09375 Z M 3.984375 -7.09375 "/></g></g></g><g fill="#ffffff" fill-opacity="1"><g transform="translate(111.323272, 13.219794)"><g><path d="M 0.78125 -9.5 L 3.984375 -9.5 L 3.984375 0 L 0.78125 0 Z M 0.78125 -9.5 "/></g></g></g><g fill="#ffffff" fill-opacity="1"><g transform="translate(123.537073, 13.219794)"><g><path d="M 8.671875 -2.421875 L 8.671875 0 L 0.78125 0 L 0.78125 -9.5 L 8.5 -9.5 L 8.5 -7.09375 L 3.921875 -7.09375 L 3.921875 -5.96875 L 7.9375 -5.96875 L 7.9375 -3.671875 L 3.921875 -3.671875 L 3.921875 -2.421875 Z M 8.671875 -2.421875 "/></g></g></g><g fill="#ffffff" fill-opacity="1"><g transform="translate(140.134291, 13.219794)"><g><path d="M 0.78125 -9.5 L 5.453125 -9.5 C 6.515625 -9.5 7.453125 -9.304688 8.265625 -8.921875 C 9.078125 -8.535156 9.707031 -7.984375 10.15625 -7.265625 C 10.601562 -6.554688 10.828125 -5.71875 10.828125 -4.75 C 10.828125 -3.78125 10.601562 -2.9375 10.15625 -2.21875 C 9.707031 -1.507812 9.078125 -0.960938 8.265625 -0.578125 C 7.453125 -0.191406 6.515625 0 5.453125 0 L 0.78125 0 Z M 5.328125 -2.5 C 6.015625 -2.5 6.5625 -2.691406 6.96875 -3.078125 C 7.382812 -3.472656 7.59375 -4.03125 7.59375 -4.75 C 7.59375 -5.46875 7.382812 -6.019531 6.96875 -6.40625 C 6.5625 -6.800781 6.015625 -7 5.328125 -7 L 3.984375 -7 L 3.984375 -2.5 Z M 5.328125 -2.5 "/></g></g></g></g></g></svg>